<?xml version="1.0" standalone="no"?>
<!DOCTYPE svg PUBLIC "-//W3C//DTD SVG 20010904//EN"
 "http://www.w3.org/TR/2001/REC-SVG-20010904/DTD/svg10.dtd">
<svg version="1.0" xmlns="http://www.w3.org/2000/svg"
 width="1710.000000pt" height="483.000000pt" viewBox="0 0 1710.000000 483.000000"
 preserveAspectRatio="xMidYMid meet">
<metadata>
Created by potrace 1.10, written by Peter Selinger 2001-2011
</metadata>
<g transform="translate(0.000000,483.000000) scale(0.100000,-0.100000)"
fill="#000000" stroke="none">
<path d="M4438 4669 c-52 -30 13 -530 92 -704 41 -91 93 -167 149 -217 116
-104 287 -178 412 -178 64 0 69 2 69 21 0 46 -141 297 -292 522 -36 53 -43 87
-20 87 12 0 66 -46 215 -185 110 -101 168 -163 254 -269 55 -68 49 143 -9 309
-106 301 -384 523 -750 599 -41 9 -82 18 -89 21 -8 2 -22 0 -31 -6z"/>
<path d="M6045 4468 c-33 -11 -73 -26 -90 -33 -16 -7 -46 -20 -65 -28 -106
-43 -225 -147 -292 -254 -86 -136 -108 -198 -115 -324 -6 -109 3 -128 37 -75
11 19 37 54 58 77 44 51 203 210 224 224 25 17 58 35 58 32 0 -26 -63 -146
-151 -287 -24 -38 -71 -148 -76 -176 -7 -40 10 -47 84 -33 113 21 250 106 316
196 77 106 125 280 147 541 12 150 9 163 -44 161 -17 -1 -58 -11 -91 -21z"/>
<path d="M575 3473 c-90 -9 -216 -69 -273 -131 -71 -76 -108 -190 -99 -304 17
-214 108 -317 480 -542 43 -25 86 -55 97 -66 11 -11 24 -20 30 -20 18 0 142
-124 163 -164 16 -31 22 -65 25 -136 4 -85 1 -101 -21 -150 -51 -115 -154
-181 -294 -188 -110 -6 -177 12 -268 73 -59 39 -75 57 -116 130 -51 91 -98
108 -150 56 -27 -28 -29 -34 -29 -114 l0 -84 48 -63 c113 -152 273 -229 475
-230 109 0 211 22 303 66 91 43 196 150 245 250 l34 69 0 170 0 170 -32 67
c-40 86 -90 150 -160 210 -61 51 -198 148 -210 148 -5 0 -26 14 -47 30 -22 17
-44 30 -48 30 -19 0 -156 96 -206 144 -79 76 -101 168 -62 253 34 77 134 115
232 89 30 -8 69 -21 85 -29 29 -15 106 -93 133 -135 11 -18 25 -23 59 -25 66
-2 81 22 81 130 0 46 -5 94 -11 106 -14 27 -80 97 -91 97 -5 0 -27 12 -50 26
-79 50 -213 78 -323 67z"/>
<path d="M12328 3469 c-79 -11 -173 -57 -236 -114 -155 -140 -160 -414 -11
-585 51 -59 141 -131 224 -180 123 -73 299 -195 352 -244 86 -79 117 -146 117
-251 0 -95 -19 -145 -83 -217 -65 -73 -152 -108 -266 -108 -158 1 -280 73
-360 213 -45 78 -88 96 -139 56 -25 -20 -26 -24 -26 -128 l0 -107 71 -73 c84
-86 150 -130 244 -162 60 -20 89 -24 200 -24 158 0 253 24 357 93 80 52 129
105 170 187 54 105 68 160 68 259 0 171 -55 308 -167 417 -37 36 -79 73 -93
82 -129 89 -344 227 -352 227 -4 0 -18 10 -33 23 -130 107 -145 132 -145 235
0 56 4 75 22 98 32 41 47 51 102 70 42 14 57 15 105 4 95 -21 128 -44 224
-155 29 -33 40 -39 72 -38 58 2 79 29 83 113 3 56 0 78 -18 115 -22 45 -99
114 -165 147 -86 43 -213 62 -317 47z"/>
<path d="M4740 3464 c-198 -36 -336 -99 -500 -230 -90 -72 -161 -166 -223
-294 -64 -133 -85 -204 -99 -322 -28 -248 57 -546 203 -713 10 -11 30 -35 44
-53 46 -56 182 -157 268 -199 170 -83 236 -98 442 -98 189 0 266 14 385 68 80
38 108 37 189 -2 35 -17 89 -35 120 -42 31 -6 79 -16 106 -21 29 -6 114 -8
200 -5 172 6 258 28 405 102 76 38 240 157 240 173 0 4 20 27 44 52 55 57 152
221 172 291 55 197 56 203 57 339 1 136 0 144 -50 305 -33 106 -120 264 -173
315 -20 19 -41 42 -46 50 -5 8 -25 27 -44 43 -19 15 -57 45 -85 67 -90 72
-284 153 -408 169 -98 14 -233 14 -313 1 -34 -6 -108 -26 -165 -46 -160 -56
-172 -56 -324 7 -71 29 -142 40 -275 44 -80 2 -156 2 -170 -1z m301 -241 c74
-23 87 -35 66 -65 -23 -31 -119 -177 -134 -203 -21 -36 -45 -89 -54 -120 -41
-147 -43 -162 -43 -330 0 -154 2 -178 26 -260 37 -125 57 -177 78 -200 10 -11
25 -35 34 -52 9 -18 36 -57 61 -88 25 -30 45 -61 45 -68 0 -8 -19 -23 -42 -33
-36 -16 -66 -19 -193 -19 -148 0 -171 3 -285 43 -100 35 -263 168 -326 264
-103 159 -128 250 -121 443 4 124 8 149 34 221 68 184 202 330 378 414 113 53
177 67 316 69 74 1 123 -4 160 -16z m999 -13 c30 -12 64 -24 75 -27 11 -3 27
-11 35 -17 8 -6 36 -21 61 -34 52 -26 189 -156 235 -222 27 -40 42 -71 70
-145 26 -69 35 -124 41 -232 6 -130 -6 -206 -49 -303 -11 -24 -24 -54 -28 -66
-25 -64 -208 -264 -242 -264 -4 0 -27 -13 -49 -30 -22 -16 -77 -42 -122 -57
-76 -26 -93 -28 -242 -28 -133 0 -166 3 -197 18 -24 11 -38 25 -38 36 0 10 26
52 58 92 60 77 78 104 88 129 4 8 18 40 31 70 57 127 76 241 70 425 -6 144
-13 187 -43 248 -8 16 -14 35 -14 43 0 34 -107 217 -168 290 -18 20 -23 51
-10 62 7 5 36 17 63 26 76 24 300 16 375 -14z m-660 -170 c9 0 102 -115 113
-140 4 -8 16 -28 27 -45 11 -16 22 -37 26 -45 3 -8 10 -23 15 -32 9 -19 24
-73 41 -153 14 -68 4 -246 -17 -320 -10 -33 -27 -76 -39 -95 -12 -19 -32 -57
-46 -83 -36 -69 -117 -157 -144 -157 -39 0 -136 116 -184 220 -63 137 -67 154
-67 315 0 129 3 158 22 210 40 111 55 140 115 222 62 87 94 117 116 108 8 -3
17 -5 22 -5z"/>
<path d="M1621 3414 c-21 -27 -21 -32 -21 -905 0 -482 3 -885 6 -894 10 -26
60 -45 119 -45 46 0 60 4 80 25 l25 24 0 626 c0 344 3 625 8 625 18 -1 32 -22
81 -125 29 -60 99 -204 156 -320 103 -210 148 -304 321 -661 55 -116 101 -198
115 -208 31 -22 61 -20 92 4 23 19 215 395 546 1070 90 185 129 250 132 220 1
-8 2 -288 3 -622 l1 -607 22 -22 c27 -27 118 -38 162 -19 64 26 62 -11 59 945
l-3 867 -28 24 c-25 21 -38 24 -112 24 -80 0 -84 -1 -108 -29 -13 -16 -50 -83
-82 -148 -481 -987 -618 -1258 -638 -1258 -22 0 -16 -11 -183 335 -124 256
-215 445 -444 914 -41 82 -82 158 -92 168 -15 15 -34 18 -107 18 -85 0 -91 -1
-110 -26z"/>
<path d="M6912 3417 c-18 -19 -22 -35 -22 -88 0 -57 3 -69 26 -90 24 -23 32
-24 184 -27 112 -2 162 -7 169 -16 7 -8 12 -268 13 -795 l3 -783 28 -24 c23
-20 39 -24 88 -24 54 0 64 3 90 29 l29 29 0 779 c0 593 3 782 12 791 8 8 56
12 150 12 173 0 202 9 218 71 15 55 7 105 -21 135 l-22 24 -462 0 -462 0 -21
-23z"/>
<path d="M8255 3415 l-25 -24 0 -886 0 -886 25 -24 c21 -22 33 -25 90 -25 57
0 69 3 90 25 l25 24 0 290 c0 250 2 292 16 305 14 14 72 16 493 16 358 0 480
-3 489 -12 9 -9 12 -88 12 -296 0 -175 4 -291 10 -303 16 -30 64 -49 122 -49
65 0 94 18 108 68 6 24 10 331 10 880 0 905 1 885 -49 912 -22 11 -141 13
-156 2 -40 -29 -40 -29 -45 -506 l-5 -461 -489 -3 c-353 -1 -493 1 -502 9 -12
9 -14 95 -14 468 l0 458 -23 21 c-19 18 -35 22 -91 22 -58 0 -70 -3 -91 -25z"/>
<path d="M10201 3421 c-11 -11 -23 -35 -26 -53 -3 -18 -4 -419 -3 -891 l3
-859 28 -24 c22 -19 39 -24 82 -24 69 0 98 14 119 56 14 31 16 118 16 885 0
739 -2 854 -15 879 -21 41 -43 50 -119 50 -52 0 -70 -4 -85 -19z"/>
<path d="M10899 3414 l-24 -26 0 -885 0 -885 28 -24 28 -24 330 0 331 0 29 29
c24 25 29 37 29 81 0 28 -7 64 -15 80 l-16 30 -224 0 c-123 0 -235 4 -250 10
l-25 10 2 197 3 198 185 5 c102 3 193 9 203 14 50 24 65 144 23 193 l-24 28
-194 5 -193 5 -3 364 c-2 260 1 368 9 377 9 11 56 14 221 14 281 0 306 11 295
139 -7 94 6 91 -386 91 l-338 0 -24 -26z"/>
</g>
</svg>
