<?xml version="1.0" standalone="no"?>
<!DOCTYPE svg PUBLIC "-//W3C//DTD SVG 20010904//EN"
 "http://www.w3.org/TR/2001/REC-SVG-20010904/DTD/svg10.dtd">
<svg version="1.0" xmlns="http://www.w3.org/2000/svg"
 width="152.000000pt" height="61.000000pt" viewBox="0 0 152.000000 61.000000"
 preserveAspectRatio="xMidYMid meet">
<metadata>
Created by potrace 1.10, written by Peter Selinger 2001-2011
</metadata>
<g transform="translate(0.000000,61.000000) scale(0.050000,-0.050000)"
fill="#000000" stroke="none">
<path d="M1149 965 c13 -97 81 -185 142 -185 37 0 37 20 -2 76 -40 57 -15 57
48 -1 l49 -45 -15 60 c-17 71 -61 124 -135 162 -90 47 -102 38 -87 -67z"/>
<path d="M1482 965 c-32 -30 -65 -77 -73 -105 l-14 -50 44 39 44 40 -14 -55
c-7 -29 -7 -54 0 -54 40 0 89 47 109 103 50 142 7 179 -96 82z"/>
<path d="M2025 927 c-32 -13 -36 -598 -4 -618 49 -30 79 35 74 163 -6 155 54
247 119 183 31 -31 32 -48 9 -170 -39 -204 -39 -214 10 -221 53 -8 84 101 90
311 3 154 -89 220 -187 132 -52 -47 -61 -26 -36 84 30 133 10 170 -75 136z"/>
<path d="M2440 860 c0 -79 71 -85 100 -9 27 70 28 69 -40 69 -53 0 -60 -7 -60
-60z"/>
<path d="M1710 800 c-7 -33 -26 -60 -42 -60 -15 0 -28 -13 -28 -29 0 -18 12
-25 30 -18 26 10 30 -12 28 -140 -2 -112 6 -166 30 -203 61 -92 201 -43 188
66 -8 66 -51 80 -59 20 -17 -117 -67 -46 -67 94 l0 140 65 6 c85 8 90 64 6 64
-56 0 -59 4 -48 60 11 54 7 60 -39 60 -40 0 -54 -12 -64 -60z"/>
<path d="M925 779 c-25 -10 -51 -31 -57 -48 -9 -23 -32 -27 -97 -18 -54 7 -91
3 -100 -11 -21 -35 -53 -26 -47 13 4 26 -7 35 -44 35 l-50 0 7 -240 c9 -268 7
-261 55 -234 28 16 34 44 30 160 -4 119 2 148 36 182 75 75 107 35 91 -112 -8
-71 -15 -145 -17 -163 -1 -19 15 -35 40 -39 50 -7 67 38 68 182 0 108 45 214
91 214 49 0 55 -49 29 -232 -26 -183 -10 -249 47 -187 36 39 77 334 57 407
-21 76 -79 114 -139 91z"/>
<path d="M260 765 c-110 -43 -105 -159 10 -261 92 -81 117 -155 60 -177 -40
-15 -90 28 -90 78 0 28 -9 36 -32 27 -17 -7 -35 -12 -40 -12 -27 0 -1 -80 38
-117 62 -57 155 -56 211 3 70 75 56 141 -47 227 -59 49 -90 91 -90 121 0 59
72 63 90 5 14 -42 71 -47 84 -7 23 70 -108 147 -194 113z"/>
<path d="M2666 712 c-151 -127 -117 -432 48 -432 98 0 208 89 175 142 -17 28
-63 21 -76 -11 -36 -93 -153 -63 -153 39 0 44 9 48 105 54 l105 6 5 90 c9 154
-94 209 -209 112z m134 -92 c0 -55 -6 -60 -70 -60 -78 0 -84 11 -39 76 47 67
109 58 109 -16z"/>
<path d="M1235 718 c-103 -59 -128 -275 -45 -375 72 -84 244 -86 337 -3 83 74
104 289 35 358 -47 47 -259 60 -327 20z m85 -26 c0 -4 -13 -39 -30 -79 -36
-86 -39 -176 -6 -209 13 -13 16 -30 8 -39 -58 -58 -92 150 -43 266 23 55 71
97 71 61z m200 -119 c0 -96 -37 -208 -73 -221 -24 -10 -28 -4 -17 23 29 69 47
196 35 255 -11 54 -9 57 22 33 18 -16 33 -56 33 -90z m-120 -21 c0 -84 -18
-136 -42 -121 -21 13 -25 156 -5 176 30 29 47 9 47 -55z"/>
<path d="M2443 722 c-53 -34 -43 -431 12 -438 43 -7 45 -1 45 150 0 86 6 190
13 231 13 78 -9 96 -70 57z"/>
</g>
</svg>
