<svg width="24" height="24" viewBox="0 0 24 24" fill="none" xmlns="http://www.w3.org/2000/svg">
<path d="M0.609358 0.946884C0.351545 1.12501 0.309358 1.44376 0.51092 1.6922C0.599983 1.8047 0.618733 1.8047 1.57498 1.82814L2.5453 1.85157L3.16873 4.47657C3.51561 5.92032 3.96092 7.80939 4.16717 8.67189C4.37342 9.53439 4.64998 10.6922 4.78123 11.2406C4.91248 11.7891 5.00623 12.2578 4.99217 12.2766C4.9828 12.3 4.89373 12.3328 4.7953 12.3516C4.1203 12.4781 3.51092 13.1391 3.3703 13.8938C3.27186 14.4422 3.4828 15.0984 3.8953 15.5203C4.12498 15.7547 4.58905 16.0125 4.85155 16.0547C4.93123 16.0641 5.07186 16.0875 5.1703 16.1016L5.34842 16.1297L5.07186 16.3078C4.32186 16.7953 3.96561 17.7422 4.1953 18.6328C4.46717 19.6688 5.53592 20.3766 6.58123 20.2078C8.01092 19.9781 8.81248 18.4781 8.20311 17.1703C8.05311 16.8422 7.73436 16.4766 7.41561 16.2656L7.20467 16.125H11.864C16.4297 16.1297 16.5187 16.1297 16.3594 16.2141C15.9187 16.4484 15.5531 16.9031 15.375 17.4375C15.2859 17.6906 15.2765 17.8172 15.2906 18.1922C15.3094 18.5859 15.3328 18.6797 15.4828 18.9891C15.9 19.8609 16.8375 20.3625 17.7469 20.2078C18.4594 20.0813 19.0406 19.6453 19.35 18.9984C19.5187 18.6375 19.5234 18.6234 19.5234 18.0703C19.5234 17.5313 19.5187 17.4938 19.3734 17.1984C19.1906 16.8281 18.914 16.5 18.5906 16.2844L18.3515 16.125L18.6562 16.1203C19.0828 16.1203 19.2703 16.0453 19.3828 15.8391C19.5 15.6188 19.4437 15.3609 19.2515 15.2156L19.1203 15.1172L12.0328 15.0938C5.56405 15.0703 4.93123 15.0656 4.80467 14.9953C4.51873 14.8359 4.34061 14.5219 4.3453 14.1797C4.3453 13.9125 4.42967 13.725 4.62655 13.5375C4.92655 13.2469 4.51405 13.2656 11.3156 13.2656C17.3765 13.2656 17.5265 13.2656 17.8172 13.1719C18.314 13.0172 18.75 12.5859 18.9094 12.0984C18.9515 11.9813 19.1531 11.175 19.3594 10.3125C19.5703 9.45001 19.9594 7.8422 20.2265 6.74532C20.4984 5.64376 20.7187 4.70157 20.7187 4.64532C20.7187 4.48595 20.5969 4.28907 20.4609 4.22814C20.2922 4.14845 14.6672 4.14845 14.5172 4.22345C14.2219 4.37345 14.1609 4.72501 14.3859 4.97814L14.5219 5.13282L17.0625 5.14689C19.439 5.15626 19.5984 5.16564 19.575 5.24064C19.5656 5.28282 19.3265 6.24845 19.0547 7.38282C18.7781 8.5172 18.4172 9.98907 18.2578 10.65C18.0703 11.4141 17.925 11.9063 17.864 11.9906C17.6484 12.2953 17.9719 12.2813 11.7187 12.2813C6.36561 12.2813 6.05155 12.2766 6.02811 12.1969C6.00467 12.1172 5.85467 11.4844 5.20311 8.7422C4.65936 6.45939 4.35936 5.18907 4.35936 5.17032C4.35936 5.16564 5.54061 5.15626 6.98436 5.15626C9.87655 5.15626 9.81092 5.16095 9.96561 4.87032C10.0594 4.68282 10.0219 4.45782 9.86248 4.30782L9.74061 4.19532L6.92342 4.17189L4.10623 4.14845L4.0453 3.89064C3.4453 1.33595 3.38436 1.11563 3.26248 0.989072L3.14061 0.867197L1.95467 0.853134C0.782795 0.839072 0.768733 0.839072 0.609358 0.946884ZM6.75467 17.0344C7.16717 17.2313 7.41561 17.6344 7.41092 18.0938C7.41092 18.7547 6.92811 19.2281 6.2578 19.2281C4.97811 19.2281 4.67811 17.4375 5.88748 16.9875C6.11717 16.9031 6.52967 16.9266 6.75467 17.0344ZM17.8828 17.0344C18.1406 17.1516 18.3984 17.4141 18.4969 17.6531C18.6 17.8969 18.5812 18.3141 18.45 18.5859C18.2578 19.0078 17.8922 19.2281 17.4094 19.2281C16.7672 19.2328 16.2656 18.7266 16.2656 18.0844C16.2703 17.2453 17.1328 16.6828 17.8828 17.0344Z" fill="white"/>
<path d="M11.8172 1.27031C11.7609 1.32188 11.6953 1.42031 11.6672 1.48594C11.6438 1.55156 11.625 3.075 11.625 5.2125V8.82188L11.0156 8.24531C9.75469 7.05 9.675 6.98438 9.46406 6.98438C9.18281 6.98438 9 7.18125 9 7.47656C9 7.66875 9.02344 7.72031 9.17813 7.87031C10.2281 8.90156 11.85 10.3969 11.9625 10.4438C12.0422 10.4766 12.1641 10.4906 12.2438 10.4766C12.3375 10.4531 12.825 10.0219 13.8 9.09375C14.5828 8.34844 15.2344 7.70625 15.2531 7.66406C15.375 7.34531 15.1406 6.98906 14.8078 6.98438C14.5922 6.98438 14.55 7.01719 13.5188 8.00156C13.05 8.44688 12.6563 8.8125 12.6375 8.8125C12.6234 8.8125 12.6094 7.15313 12.6094 5.12813V1.44375L12.4734 1.30781C12.3 1.13438 11.9859 1.11563 11.8172 1.27031Z" fill="white"/>
</svg>
