<svg width="24" height="24" viewBox="0 0 24 24" fill="none" xmlns="http://www.w3.org/2000/svg">
<path d="M15.75 10.5V6C15.75 5.00544 15.3549 4.05161 14.6516 3.34835C13.9484 2.64509 12.9945 2.25 12 2.25C11.0054 2.25 10.0516 2.64509 9.34833 3.34835C8.64507 4.05161 8.24998 5.00544 8.24998 6V10.5M19.606 8.507L20.869 20.507C20.939 21.172 20.419 21.75 19.75 21.75H4.24998C4.09219 21.7502 3.93613 21.7171 3.79193 21.6531C3.64774 21.589 3.51863 21.4953 3.41301 21.3781C3.30738 21.2608 3.2276 21.1227 3.17884 20.9726C3.13008 20.8226 3.11343 20.6639 3.12999 20.507L4.39399 8.507C4.42314 8.23056 4.55361 7.9747 4.76024 7.78876C4.96686 7.60281 5.23501 7.49995 5.51298 7.5H18.487C19.063 7.5 19.546 7.935 19.606 8.507ZM8.62498 10.5C8.62498 10.5995 8.58548 10.6948 8.51515 10.7652C8.44482 10.8355 8.34944 10.875 8.24998 10.875C8.15053 10.875 8.05515 10.8355 7.98482 10.7652C7.91449 10.6948 7.87498 10.5995 7.87498 10.5C7.87498 10.4005 7.91449 10.3052 7.98482 10.2348C8.05515 10.1645 8.15053 10.125 8.24998 10.125C8.34944 10.125 8.44482 10.1645 8.51515 10.2348C8.58548 10.3052 8.62498 10.4005 8.62498 10.5ZM16.125 10.5C16.125 10.5995 16.0855 10.6948 16.0152 10.7652C15.9448 10.8355 15.8494 10.875 15.75 10.875C15.6505 10.875 15.5551 10.8355 15.4848 10.7652C15.4145 10.6948 15.375 10.5995 15.375 10.5C15.375 10.4005 15.4145 10.3052 15.4848 10.2348C15.5551 10.1645 15.6505 10.125 15.75 10.125C15.8494 10.125 15.9448 10.1645 16.0152 10.2348C16.0855 10.3052 16.125 10.4005 16.125 10.5Z" stroke="black" stroke-width="1.5" stroke-linecap="round" stroke-linejoin="round"/>
<g clip-path="url(#clip0_617_12)">
<path d="M17.75 19.3125L18.6875 20.25L20.25 18.0625M22.75 19C22.75 19.4925 22.653 19.9801 22.4645 20.4351C22.2761 20.89 21.9999 21.3034 21.6516 21.6516C21.3034 21.9999 20.89 22.2761 20.4351 22.4645C19.9801 22.653 19.4925 22.75 19 22.75C18.5075 22.75 18.0199 22.653 17.5649 22.4645C17.11 22.2761 16.6966 21.9999 16.3483 21.6516C16.0001 21.3034 15.7239 20.89 15.5355 20.4351C15.347 19.9801 15.25 19.4925 15.25 19C15.25 18.0054 15.6451 17.0516 16.3483 16.3483C17.0516 15.6451 18.0054 15.25 19 15.25C19.9946 15.25 20.9484 15.6451 21.6516 16.3483C22.3549 17.0516 22.75 18.0054 22.75 19Z" fill="white"/>
<path d="M17.75 19.3125L18.6875 20.25L20.25 18.0625M22.75 19C22.75 19.4925 22.653 19.9801 22.4645 20.4351C22.2761 20.89 21.9999 21.3034 21.6516 21.6516C21.3034 21.9999 20.89 22.2761 20.4351 22.4645C19.9801 22.653 19.4925 22.75 19 22.75C18.5075 22.75 18.0199 22.653 17.5649 22.4645C17.11 22.2761 16.6966 21.9999 16.3483 21.6516C16.0001 21.3034 15.7239 20.89 15.5355 20.4351C15.347 19.9801 15.25 19.4925 15.25 19C15.25 18.0054 15.6451 17.0516 16.3483 16.3483C17.0516 15.6451 18.0054 15.25 19 15.25C19.9946 15.25 20.9484 15.6451 21.6516 16.3483C22.3549 17.0516 22.75 18.0054 22.75 19Z" stroke="black" stroke-width="1.5" stroke-linecap="round" stroke-linejoin="round"/>
</g>
<defs>
<clipPath id="clip0_617_12">
<rect width="10" height="10" fill="white" transform="translate(14 14)"/>
</clipPath>
</defs>
</svg>
