<svg width="24" height="24" viewBox="0 0 24 24" fill="none" xmlns="http://www.w3.org/2000/svg">
<path d="M15 12C15 12.394 14.9224 12.7841 14.7716 13.1481C14.6209 13.512 14.3999 13.8427 14.1213 14.1213C13.8427 14.3999 13.512 14.6209 13.1481 14.7716C12.7841 14.9224 12.394 15 12 15C11.606 15 11.2159 14.9224 10.8519 14.7716C10.488 14.6209 10.1573 14.3999 9.87868 14.1213C9.6001 13.8427 9.37913 13.512 9.22836 13.1481C9.0776 12.7841 9 12.394 9 12C9 11.2044 9.31607 10.4413 9.87868 9.87868C10.4413 9.31607 11.2044 9 12 9C12.7956 9 13.5587 9.31607 14.1213 9.87868C14.6839 10.4413 15 11.2044 15 12Z" fill="#7949FF" stroke="#7949FF" stroke-width="1.5" stroke-linecap="round" stroke-linejoin="round"/>
<path d="M21 12C21 13.1819 20.7672 14.3522 20.3149 15.4442C19.8626 16.5361 19.1997 17.5282 18.364 18.364C17.5282 19.1997 16.5361 19.8626 15.4442 20.3149C14.3522 20.7672 13.1819 21 12 21C10.8181 21 9.64778 20.7672 8.55585 20.3149C7.46392 19.8626 6.47177 19.1997 5.63604 18.364C4.80031 17.5282 4.13738 16.5361 3.68508 15.4442C3.23279 14.3522 3 13.1819 3 12C3 9.61305 3.94821 7.32387 5.63604 5.63604C7.32387 3.94821 9.61305 3 12 3C14.3869 3 16.6761 3.94821 18.364 5.63604C20.0518 7.32387 21 9.61305 21 12Z" stroke="#7949FF" stroke-width="1.5" stroke-linecap="round" stroke-linejoin="round"/>
</svg>

