<svg width="15" height="15" viewBox="0 0 15 15" fill="none" xmlns="http://www.w3.org/2000/svg">
<path d="M9.59998 3.29998H11.1C11.2656 3.29998 11.4 3.16558 11.4 2.99998V0.978876C11.4 0.821676 11.2791 0.690876 11.1225 0.679776C10.6452 0.645876 9.71278 0.599976 9.04228 0.599976C7.19998 0.599976 5.99998 1.70398 5.99998 3.71038V5.69998H3.89998C3.73438 5.69998 3.59998 5.83438 3.59998 5.99998V8.09998C3.59998 8.26558 3.73438 8.39998 3.89998 8.39998H5.99998V14.1C5.99998 14.2656 6.13438 14.4 6.29998 14.4H8.39998C8.56558 14.4 8.69998 14.2656 8.69998 14.1V8.39998H10.8666C11.0196 8.39998 11.148 8.28508 11.1648 8.13298L11.3982 6.03298C11.418 5.85538 11.2788 5.69998 11.1 5.69998H8.69998V4.19998C8.69998 3.70288 9.10288 3.29998 9.59998 3.29998Z" fill="black"/>
</svg>
