<svg width="15" height="15" viewBox="0 0 15 15" fill="none" xmlns="http://www.w3.org/2000/svg">
<g clip-path="url(#clip0_27_277)">
<path d="M4.80002 0.900024C2.64902 0.900024 0.900024 2.64902 0.900024 4.80002V10.2C0.900024 12.351 2.64902 14.1 4.80002 14.1H10.2C12.351 14.1 14.1 12.351 14.1 10.2V4.80002C14.1 2.64902 12.351 0.900024 10.2 0.900024H4.80002ZM11.1 3.30002C11.43 3.30002 11.7 3.57002 11.7 3.90002C11.7 4.23002 11.43 4.50002 11.1 4.50002C10.77 4.50002 10.5 4.23002 10.5 3.90002C10.5 3.57002 10.77 3.30002 11.1 3.30002ZM7.50002 4.20002C9.32102 4.20002 10.8 5.67902 10.8 7.50002C10.8 9.32102 9.32102 10.8 7.50002 10.8C5.67902 10.8 4.20002 9.32102 4.20002 7.50002C4.20002 5.67902 5.67902 4.20002 7.50002 4.20002ZM7.50002 4.80002C6.01202 4.80002 4.80002 6.01202 4.80002 7.50002C4.80002 8.98802 6.01202 10.2 7.50002 10.2C8.98802 10.2 10.2 8.98802 10.2 7.50002C10.2 6.01202 8.98802 4.80002 7.50002 4.80002Z" fill="black"/>
</g>
<defs>
<clipPath id="clip0_27_277">
<rect width="15" height="15" fill="white"/>
</clipPath>
</defs>
</svg>
