<svg width="15" height="15" viewBox="0 0 15 15" fill="none" xmlns="http://www.w3.org/2000/svg">
<g clip-path="url(#clip0_27_275)">
<path d="M15.0187 3.13127C14.4645 3.37737 13.8703 3.5426 13.2457 3.6176C13.8832 3.23557 14.373 2.63088 14.6027 1.91135C14.0074 2.26409 13.3453 2.52073 12.6434 2.65901C12.0809 2.05901 11.2793 1.68518 10.3922 1.68518C8.68828 1.68518 7.30664 3.06565 7.30664 4.76956C7.30664 5.01096 7.33477 5.24651 7.3875 5.47268C4.82344 5.34377 2.55117 4.11565 1.02891 2.24885C0.762891 2.70588 0.611719 3.23557 0.611719 3.80041C0.611719 4.87034 1.15547 5.81487 1.98398 6.36916C1.47773 6.35276 1.00195 6.21331 0.585937 5.98245C0.585937 5.99534 0.585937 6.00823 0.585937 6.02112C0.585937 7.51643 1.65 8.76213 3.05977 9.0469C2.80195 9.11721 2.52891 9.15471 2.24766 9.15471C2.04844 9.15471 1.85508 9.13596 1.66641 9.09846C2.06016 10.3231 3.19922 11.2172 4.54805 11.2418C3.49336 12.0692 2.16328 12.5614 0.717187 12.5614C0.467578 12.5614 0.222656 12.5473 -0.0175781 12.518C1.34648 13.3946 2.96836 13.9043 4.71094 13.9043C10.3852 13.9043 13.4883 9.20393 13.4883 5.12815C13.4883 4.99456 13.4848 4.85979 13.4801 4.72854C14.0824 4.29377 14.6051 3.75002 15.0187 3.13127Z" fill="black"/>
</g>
<defs>
<clipPath id="clip0_27_275">
<rect width="15" height="15" fill="white"/>
</clipPath>
</defs>
</svg>
